<svg width="24" height="25" viewBox="0 0 24 25" fill="none" xmlns="http://www.w3.org/2000/svg">
<path d="M5 16.6445V20.6445M6 4.64453V8.64453M7 18.6445H3M8 6.64453H4M13 4.64453L14.7528 9.0889C14.9407 9.56536 15.0347 9.80359 15.1786 10.0045C15.3061 10.1825 15.462 10.3384 15.6401 10.466C15.8409 10.6098 16.0792 10.7038 16.5556 10.8917L21 12.6445L16.5556 14.3974C16.0792 14.5853 15.8409 14.6792 15.6401 14.8231C15.462 14.9506 15.3061 15.1065 15.1786 15.2846C15.0347 15.4855 14.9407 15.7237 14.7528 16.2002L13 20.6445L11.2472 16.2002C11.0593 15.7237 10.9653 15.4855 10.8214 15.2846C10.6939 15.1065 10.538 14.9506 10.3599 14.8231C10.1591 14.6792 9.92083 14.5853 9.44437 14.3974L5 12.6445L9.44437 10.8917C9.92083 10.7038 10.1591 10.6098 10.3599 10.466C10.538 10.3384 10.6939 10.1825 10.8214 10.0045C10.9653 9.80359 11.0593 9.56536 11.2472 9.0889L13 4.64453Z" stroke="black" stroke-width="2" stroke-linecap="round" stroke-linejoin="round"/>
</svg>
