<svg xmlns="http://www.w3.org/2000/svg" version="1.1" xmlns:xlink="http://www.w3.org/1999/xlink" width="183.97" height="184"><svg xmlns:inkscape="http://www.inkscape.org/namespaces/inkscape" xmlns:sodipodi="http://sodipodi.sourceforge.net/DTD/sodipodi-0.dtd" xmlns="http://www.w3.org/2000/svg" xmlns:svg="http://www.w3.org/2000/svg" version="1.1" id="SvgjsSvg1107" sodipodi:docname="Web Favicon.eps" viewBox="28.02 28 183.97 184">
  <defs id="SvgjsDefs1106"></defs>
  <sodipodi:namedview id="SvgjsSodipodi:namedview1105" pagecolor="#FFFFFF" bordercolor="#000000" borderopacity="0.25" inkscape:showpageshadow="2" inkscape:pageopacity="0.0" inkscape:pagecheckerboard="0" inkscape:deskcolor="#d1d1d1"></sodipodi:namedview>
  <g id="SvgjsG1104" inkscape:groupmode="layer" inkscape:label="ink_ext_XXXXXX" transform="matrix(1.3333333,0,0,-1.3333333,0,240)">
    <g id="SvgjsG1103" transform="scale(0.1)">
      <path d="M 1800,0 H 0 V 1800 H 1800 V 0" style="fill:none;fill-opacity:1;fill-rule:nonzero;stroke:none" id="SvgjsPath1102"></path>
      <circle cx="900" cy="900" r="600" fill="#ffffff"></circle>
      <path d="m 1371.35,923.684 v -51.032 c 0,-5.613 -1.95,-10.984 -1.95,-16.597 0,-1.711 0,-1.711 0,-3.668 -1.71,-12.696 -3.66,-21.727 -7.08,-34.426 0,-5.613 -1.95,-14.652 -3.66,-20.27 0,-3.66 -1.96,-7.07 -1.96,-10.742 -1.71,-10.98 -5.37,-21.969 -7.32,-31.008 -14.41,-41.992 -34.67,-83.992 -60.07,-122.32 -7.32,-9.031 -12.69,-16.359 -20.02,-25.391 -14.65,-12.941 -29.3,-25.64 -47.36,-36.628 0,3.668 -14.65,34.668 -16.61,36.628 v 1.711 c -1.71,5.61 -3.66,9.27 -5.37,12.688 -16.36,52.98 1.71,87.66 36.38,116.711 27.35,23.93 -5.37,69.344 -32.72,32.961 -7.32,-20.02 -21.97,-36.621 -38.33,-36.621 -7.32,0 -16.36,3.66 -25.64,14.648 -1.7,1.953 -3.41,5.613 -5.37,7.332 -7.32,5.61 -14.65,12.692 -20.02,16.352 -23.68,20.019 -131.359,52.984 -93.02,-12.692 73,-5.379 144.05,-82.039 146,-160.422 v -12.687 l -1.95,-40.289 c 0,-14.41 -5.37,-25.402 -16.36,-34.672 l -20.02,-16.359 c -3.66,-5.371 -14.65,-12.7 -23.68,-16.36 -51.03,-27.34 -109.388,-40.043 -169.697,-45.66 v 195.09 c 9.036,-3.672 18.313,-7.332 29.301,-14.41 14.406,-14.653 25.391,-12.942 36.376,0 3.67,21.73 -7.321,23.679 -16.356,32.719 -14.649,12.699 -31.008,20.019 -49.321,23.679 v 302.762 c 56.649,0 87.657,-83.988 153.087,-74.711 29.3,0 60.31,-5.613 74.96,-32.961 1.71,-5.371 3.66,-9.035 9.04,-12.695 7.32,-12.699 20.02,-20.024 31,-5.617 34.67,31.007 -41.99,54.937 -21.97,98.64 5.61,34.672 71.05,36.383 52.98,67.393 -12.69,25.63 -36.62,7.32 -52.98,-1.71 -25.39,-12.94 -40.04,-47.612 -63.73,-63.972 -63.72,-32.719 -104.01,65.682 -182.387,67.632 v 149.43 c 7.329,-1.96 16.36,-1.96 25.637,-1.96 23.684,0 49.08,3.66 74.72,31.01 v 1.95 c 5.37,1.71 7.32,5.38 9.03,9.04 0,1.95 1.95,3.66 1.95,7.32 0,7.33 -7.32,14.65 -16.6,20.02 0,1.96 0,1.96 0,1.96 -3.66,1.7 -9.03,1.7 -16.36,0 -5.37,-7.33 -12.7,-12.94 -21.728,-16.6 -3.664,-1.72 -7.328,-3.42 -10.988,-5.38 -9.282,-5.37 -18.313,-7.32 -27.348,-9.03 h -9.277 c -1.707,0 -1.707,0 -1.707,0 -1.954,0 -3.664,0 -7.329,1.71 v 158.7 c 69.347,-3.66 133.067,-21.97 187.757,-51.02 20.03,-12.7 38.34,-34.68 49.33,-56.65 10.98,-25.4 9.03,-54.69 1.7,-80.09 -7.08,-14.65 -12.69,-29.3 -25.39,-38.33 -9.28,-10.99 -21.97,-16.36 -32.96,-20.02 -12.7,-5.62 -20.02,-9.28 -32.72,-10.99 -7.32,-1.95 -20.02,-7.32 -21.97,-16.36 v -1.95 c 0,-7.33 0,-16.36 7.32,-20.02 7.33,-3.67 14.65,-3.67 20.02,-1.71 21.98,1.71 47.62,10.74 67.64,21.73 20.02,12.94 41.75,40.29 49.07,60.31 10.99,20.02 16.61,40.04 23.69,60.06 0,0 1.95,10.99 3.66,23.68 0,-5.37 20.02,-20.02 25.64,-29.05 1.71,0 1.71,0 1.71,-1.95 3.66,-3.67 9.27,-7.33 12.94,-14.41 1.7,0 1.7,-1.95 3.66,-3.66 3.66,-3.66 7.08,-9.28 10.74,-16.61 3.66,-5.37 7.33,-10.74 10.99,-16.36 0,-1.7 1.95,-1.7 1.95,-1.7 3.66,-5.62 7.33,-10.99 10.74,-18.32 1.96,-5.37 5.62,-9.03 7.33,-12.69 1.95,-5.62 3.66,-9.28 5.62,-12.94 3.66,-3.42 5.37,-9.04 9.03,-16.36 1.95,-5.37 3.66,-9.03 5.37,-12.7 1.95,-7.32 3.66,-12.7 7.33,-18.31 1.95,-7.32 3.66,-10.75 3.66,-14.41 1.95,-5.61 3.66,-14.65 5.61,-20.26 1.71,-7.08 3.67,-14.41 5.38,-20.02 0,-7.325 1.95,-12.7 1.95,-18.071 3.42,-3.66 3.42,-5.617 3.42,-10.988 0,-1.949 1.95,-3.66 1.95,-7.32 0,-3.664 1.71,-10.993 1.71,-16.364 v -5.613 c 0,-7.324 1.95,-12.695 1.95,-18.066 0,-1.957 0,-1.957 0,-3.664 z M 862.52,1204.47 h -16.36 c -9.031,1.71 -18.308,3.66 -27.344,9.03 -5.371,1.96 -9.035,3.66 -12.699,5.38 -9.277,3.66 -14.648,9.27 -23.679,16.6 -3.665,1.7 -9.282,1.7 -12.7,0 0,0 0,0 0,-1.96 -10.984,-5.37 -16.601,-12.69 -16.601,-20.02 0,-3.66 1.953,-5.37 1.953,-7.32 1.707,-3.66 3.664,-7.33 10.984,-9.04 v -1.95 c 21.735,-27.35 49.078,-31.01 72.766,-31.01 9.277,0 16.355,0 23.68,1.96 v -149.43 c -76.422,-5.62 -116.707,-100.351 -180.434,-67.632 -25.637,16.36 -38.332,51.032 -63.727,63.972 -16.601,9.03 -40.285,27.34 -52.98,1.71 -18.316,-31.01 47.363,-32.721 52.98,-67.393 20.024,-43.703 -56.644,-67.633 -23.683,-98.64 12.695,-14.407 25.39,-7.082 32.719,5.617 5.371,3.66 5.371,7.324 7.324,12.695 16.359,27.348 47.367,32.961 76.668,32.961 63.722,-9.277 96.441,72.762 151.133,72.762 V 671.949 c -18.067,-3.66 -32.715,-10.98 -47.368,-23.679 -9.035,-9.04 -21.73,-10.989 -16.355,-32.719 9.031,-12.942 21.973,-14.653 36.379,0 9.277,5.371 20.019,10.738 27.344,12.699 V 434.871 c -60.063,5.617 -116.707,20.02 -167.739,45.66 -7.324,3.66 -20.019,10.989 -23.683,16.36 l -20.02,16.359 c -10.988,9.27 -16.359,20.262 -16.359,34.672 l -1.953,40.289 v 12.687 c 1.953,78.383 74.957,155.043 144.054,160.422 38.332,65.676 -67.39,32.711 -89.363,12.692 -9.035,-3.66 -14.406,-10.742 -21.73,-16.352 -1.954,-1.719 -3.661,-5.379 -5.618,-7.332 -9.031,-10.988 -18.066,-14.648 -27.343,-14.648 -14.407,0 -29.055,16.601 -36.379,36.621 -27.348,36.383 -62.02,-9.031 -32.719,-32.961 34.672,-29.051 52.738,-63.731 34.672,-116.711 0,-3.418 -1.953,-7.078 -3.664,-12.688 v -1.711 c -1.953,-1.96 -18.313,-32.96 -18.313,-36.628 -16.359,10.988 -32.961,23.687 -45.656,36.628 -7.328,9.032 -12.699,16.36 -20.023,25.391 -25.637,38.328 -45.657,80.328 -60.063,122.32 -3.664,9.039 -5.617,20.028 -7.324,31.008 -1.953,3.672 -1.953,7.082 -3.664,10.742 0,5.618 -1.953,14.657 -5.613,20.27 -1.711,12.699 -3.665,21.73 -3.665,34.426 0,1.957 0,1.957 0,3.668 -1.71,5.613 -1.71,10.984 -1.71,16.597 v 51.032 c 0,1.707 0,1.707 0,3.664 0,5.371 0,10.742 1.71,18.066 v 5.613 c 0,5.371 1.954,12.7 1.954,16.364 0,3.66 0,5.371 1.711,7.32 v 10.988 c 3.66,5.371 3.66,10.746 5.613,18.071 1.711,5.61 3.664,12.94 5.371,20.02 1.953,5.61 1.953,14.65 5.617,20.26 0,3.66 1.707,7.09 5.371,14.41 1.707,5.61 3.66,10.99 5.371,18.31 1.953,3.67 3.664,7.33 5.617,12.7 1.708,7.32 5.372,12.94 9.032,16.36 1.953,3.66 3.664,7.32 5.617,12.94 1.711,3.66 3.418,7.32 7.082,12.69 1.953,7.33 7.324,12.7 10.984,18.32 0,0 0,0 1.957,1.7 3.661,5.62 5.371,10.99 9.032,16.36 5.371,7.33 9.035,12.95 12.695,16.61 1.957,1.71 1.957,3.66 3.664,3.66 3.664,7.08 9.277,10.74 12.941,14.41 0,1.95 0,1.95 1.707,1.95 5.372,9.03 23.688,23.68 25.637,29.05 1.711,-12.69 5.371,-23.68 5.371,-23.68 5.375,-20.02 10.989,-40.04 20.024,-60.06 9.035,-20.02 31.007,-47.37 51.031,-60.31 20.019,-10.99 43.703,-20.02 67.633,-21.73 5.371,-1.96 12.695,-1.96 20.019,1.71 7.324,3.66 7.324,12.69 7.324,20.02 0,0 0,0 -1.953,0 v 1.95 c 0,9.04 -12.695,14.41 -20.019,16.36 -12.699,1.71 -21.977,5.37 -32.965,10.99 -12.695,3.66 -25.391,9.03 -32.715,20.02 -12.695,9.03 -18.312,23.68 -25.394,38.33 -7.325,25.4 -9.278,54.69 1.711,80.09 10.988,21.97 27.343,43.95 49.32,56.65 54.691,29.05 116.707,47.36 185.805,51.02 z M 899.879,1590 c -380.895,0 -689.758,-309.11 -689.758,-690 0,-380.891 308.863,-690 689.758,-690 381.381,0 690.001,309.109 690.001,690 0,380.89 -308.62,690 -690.001,690" style="fill:#5bb9eb;fill-opacity:1;fill-rule:nonzero;stroke:none" id="SvgjsPath1101"></path>
    </g>
  </g>
</svg><style>@media (prefers-color-scheme: light) { :root { filter: none; } }
@media (prefers-color-scheme: dark) { :root { filter: none; } }
</style></svg>