<svg width="24" height="25" viewBox="0 0 24 25" fill="none" xmlns="http://www.w3.org/2000/svg">
<path d="M4.00033 7.64453H20.0003M5.00033 4.64453H19.0003M6.89629 20.6445H17.1044C18.1275 20.6445 18.639 20.6445 19.0447 20.4529C19.402 20.2841 19.7012 20.0133 19.9047 19.6745C20.1358 19.29 20.1867 18.781 20.2885 17.7629L20.7365 13.2833C20.8279 12.369 20.8736 11.9118 20.7236 11.5584C20.5918 11.248 20.3593 10.991 20.0635 10.829C19.7268 10.6445 19.2673 10.6445 18.3484 10.6445H5.6523C4.73336 10.6445 4.27389 10.6445 3.93718 10.829C3.64141 10.991 3.40887 11.248 3.27708 11.5584C3.12706 11.9118 3.17278 12.369 3.26422 13.2833L3.71218 17.7629C3.81398 18.781 3.86488 19.29 4.09593 19.6745C4.29943 20.0133 4.59872 20.2841 4.95601 20.4529C5.36167 20.6445 5.87321 20.6445 6.89629 20.6445ZM15.0003 15.6445C15.0003 16.7491 13.6572 17.6445 12.0003 17.6445C10.3435 17.6445 9.00033 16.7491 9.00033 15.6445C9.00033 14.54 10.3435 13.6445 12.0003 13.6445C13.6572 13.6445 15.0003 14.54 15.0003 15.6445Z" stroke="#010101" stroke-width="2" stroke-linecap="round" stroke-linejoin="round"/>
</svg>
