<svg width="24" height="25" viewBox="0 0 24 25" fill="none" xmlns="http://www.w3.org/2000/svg">
<path d="M19.4003 18.6445C19.7837 17.8945 20 17.0448 20 16.1445C20 13.107 17.5376 10.6445 14.5 10.6445C11.4624 10.6445 9 13.107 9 16.1445C9 19.1821 11.4624 21.6445 14.5 21.6445L21 21.6446C21 21.6446 20 20.6445 19.4143 18.6737M18.85 12.6445C18.9484 12.1599 19 11.6582 19 11.1445C19 7.0024 15.6421 3.64453 11.5 3.64453C7.35786 3.64453 4 7.0024 4 11.1445C4 12.0211 4.15039 12.8626 4.42676 13.6445C5.50098 16.6562 3 18.6445 3 18.6445H9.5" stroke="#010101" stroke-width="2" stroke-linecap="round" stroke-linejoin="round"/>
</svg>



