<svg width="24" height="25" viewBox="0 0 24 25" fill="none" xmlns="http://www.w3.org/2000/svg">
<path d="M9 17.6445H15M9 13.6445H15M9 9.64453H10M13 3.64453H8.2C7.0799 3.64453 6.51984 3.64453 6.09202 3.86252C5.71569 4.05426 5.40973 4.36023 5.21799 4.73655C5 5.16437 5 5.72443 5 6.84453V18.4445C5 19.5646 5 20.1247 5.21799 20.5525C5.40973 20.9288 5.71569 21.2348 6.09202 21.4265C6.51984 21.6445 7.0799 21.6445 8.2 21.6445H15.8C16.9201 21.6445 17.4802 21.6445 17.908 21.4265C18.2843 21.2348 18.5903 20.9288 18.782 20.5525C19 20.1247 19 19.5646 19 18.4445V9.64453M13 3.64453L19 9.64453M13 3.64453V8.04453C13 8.60458 13 8.88461 13.109 9.09852C13.2049 9.28668 13.3578 9.43966 13.546 9.53554C13.7599 9.64453 14.0399 9.64453 14.6 9.64453H19" stroke="#010101" stroke-width="2" stroke-linecap="round" stroke-linejoin="round"/>
</svg>


