<svg width="20" height="21" viewBox="0 0 20 21" fill="none" xmlns="http://www.w3.org/2000/svg">
<path d="M13 10.6445C13 12.3014 11.6569 13.6445 10 13.6445C8.34315 13.6445 7 12.3014 7 10.6445C7 8.98768 8.34315 7.64453 10 7.64453C11.6569 7.64453 13 8.98768 13 10.6445Z" stroke="#010101" stroke-width="2" stroke-linecap="round" stroke-linejoin="round"/>
<path d="M10.9046 1.70458C10.6988 1.64453 10.4659 1.64453 10 1.64453C9.53412 1.64453 9.30118 1.64453 9.09539 1.70458C8.79417 1.79247 8.5281 1.97261 8.33463 2.21964C8.20245 2.38841 8.11594 2.60469 7.94291 3.03725C7.69419 3.65905 7.00393 3.97924 6.36857 3.76753L5.79779 3.57734C5.3929 3.44238 5.19045 3.37489 4.99196 3.36333C4.70039 3.34634 4.4102 3.41485 4.15701 3.56044C3.98465 3.65954 3.83376 3.81044 3.53197 4.11223C3.21122 4.43298 3.05084 4.59335 2.94896 4.77642C2.79927 5.04537 2.73595 5.35387 2.76759 5.66004C2.78912 5.86844 2.87335 6.07902 3.04182 6.50019C3.30565 7.15976 3.05184 7.91332 2.44272 8.27886L2.16521 8.44541C1.74031 8.70034 1.52786 8.82781 1.37354 9.00332C1.23698 9.15862 1.13401 9.34049 1.07109 9.5375C1 9.76012 1 10.0103 1 10.5108C1 11.1034 1 11.3997 1.09462 11.6533C1.17823 11.8774 1.31422 12.0783 1.49124 12.2391C1.69158 12.4212 1.96395 12.5301 2.50866 12.748C3.06534 12.9707 3.35196 13.5887 3.16236 14.1574L2.94721 14.8029C2.79819 15.25 2.72367 15.4735 2.7169 15.6931C2.70875 15.9572 2.77049 16.2187 2.89587 16.4513C3.00015 16.6447 3.16678 16.8113 3.5 17.1445C3.83323 17.4778 3.99985 17.6444 4.19325 17.7487C4.4258 17.874 4.68733 17.9358 4.9514 17.9276C5.17102 17.9209 5.39456 17.8463 5.84164 17.6973L6.36862 17.5217C7.00393 17.3099 7.6942 17.63 7.94291 18.2518C8.11594 18.6844 8.20245 18.9007 8.33463 19.0694C8.5281 19.3165 8.79417 19.4966 9.09539 19.5845C9.30118 19.6445 9.53412 19.6445 10 19.6445C10.4659 19.6445 10.6988 19.6445 10.9046 19.5845C11.2058 19.4966 11.4719 19.3165 11.6654 19.0694C11.7976 18.9007 11.8841 18.6844 12.0571 18.2518C12.3058 17.6301 12.9961 17.31 13.6313 17.5218L14.1579 17.6974C14.605 17.8464 14.8286 17.9209 15.0482 17.9277C15.3123 17.9359 15.5738 17.8741 15.8063 17.7487C15.9997 17.6445 16.1664 17.4778 16.4996 17.1446C16.8328 16.8114 16.9994 16.6448 17.1037 16.4514C17.2291 16.2188 17.2908 15.9573 17.2827 15.6932C17.2759 15.4736 17.2014 15.25 17.0524 14.803L16.8374 14.1579C16.6477 13.5889 16.9344 12.9707 17.4913 12.748C18.036 12.5301 18.3084 12.4212 18.5088 12.2391C18.6858 12.0783 18.8218 11.8774 18.9054 11.6533C19 11.3997 19 11.1034 19 10.5108C19 10.0103 19 9.76012 18.9289 9.5375C18.866 9.34049 18.763 9.15862 18.6265 9.00332C18.4721 8.82781 18.2597 8.70034 17.8348 8.44541L17.5569 8.27869C16.9478 7.91321 16.6939 7.15967 16.9578 6.50011C17.1262 6.07896 17.2105 5.86836 17.232 5.65996C17.2636 5.35379 17.2003 5.0453 17.0506 4.77634C16.9487 4.59328 16.7884 4.4329 16.4676 4.11215C16.1658 3.81037 16.0149 3.65947 15.8426 3.56036C15.5894 3.41477 15.2992 3.34627 15.0076 3.36325C14.8091 3.37482 14.6067 3.4423 14.2018 3.57726L13.6314 3.7674C12.9961 3.97918 12.3058 3.65903 12.0571 3.03725C11.8841 2.60469 11.7976 2.38841 11.6654 2.21964C11.4719 1.97261 11.2058 1.79247 10.9046 1.70458Z" stroke="#010101" stroke-width="2" stroke-linecap="round" stroke-linejoin="round"/>
</svg>

