<svg width="24" height="25" viewBox="0 0 24 25" fill="none" xmlns="http://www.w3.org/2000/svg">
<path d="M10.5 21.6445H4C4 18.1181 6.60771 15.2006 10 14.7154M16.4976 16.8565C15.7978 16.0773 14.6309 15.8677 13.7541 16.5812C12.8774 17.2947 12.7539 18.4875 13.4425 19.3313C13.8312 19.8077 14.7548 20.6429 15.4854 21.2798C15.8319 21.5819 16.0051 21.733 16.2147 21.7948C16.3934 21.8475 16.6018 21.8475 16.7805 21.7948C16.9901 21.733 17.1633 21.5819 17.5098 21.2798C18.2404 20.6429 19.164 19.8077 19.5527 19.3313C20.2413 18.4875 20.1329 17.2872 19.2411 16.5812C18.3492 15.8753 17.1974 16.0773 16.4976 16.8565ZM15 7.64453C15 9.85367 13.2091 11.6445 11 11.6445C8.79086 11.6445 7 9.85367 7 7.64453C7 5.43539 8.79086 3.64453 11 3.64453C13.2091 3.64453 15 5.43539 15 7.64453Z" stroke="#010101" stroke-width="2" stroke-linecap="round" stroke-linejoin="round"/>
</svg>
